<svg width="998" height="320" viewBox="0 0 998 320" xmlns="http://www.w3.org/2000/svg"><g fill="none" fill-rule="evenodd"><path fill-opacity=".15" fill="#000" d="M80 76h308v167H80z"/><g fill="#FFF"><path d="M231.97 113.424c-5.397.781-13.724 7.816-17.693 13.588 6.093 1.095 16.823.683 21.575-8.774 0 0 2.304-5.861-3.882-4.814m141.543 42.619c-3.086 3.418-8.65 9.821-13.13 18.521 4.699-.528 9.235-3.085 10.604-4.385 2.23-1.984 7.424-7.36 6.586-14.508 0 0-.471-3.676-4.06.372m-165.647-38.698c-1.672 2.669-1.745 4.276-.962 5.38 1.9-2.9 5.387-7.485 10.515-10.997-3.958.362-7.294 2.071-9.553 5.617"/><path d="M380.376 171.552c-3.27 5.76-12.508 17.818-24.782 14.971-4.052 9.92-7.457 19.953-9.403 34.963 0 0-.428 2.917-2.832 1.906-2.38-.844-6.303-4.84-7.1-10.364-.85-7.257 2.35-19.53 8.898-33.6-1.91-3.133-3.21-7.606-2.097-13.978 0 0 1.645-11.831 13.423-22.494 0 0 1.412-1.232 2.23-.85.898.382.481 4.229-.233 6.102-.742 1.859-5.987 11.019-5.987 11.019s-3.27 6.187-2.35 11.066c6.178-9.58 20.218-28.902 28.921-22.808 2.921 2.108 4.268 6.699 4.27 11.648 0 4.343-1.036 8.96-2.958 12.419m-64.182 17.662s-4.206.274-7.764-5.458c-3.311-5.458 1.255-15.792 1.255-15.792s-2.094-4.829-.576-6.46c0 0 .9-.83 3.535-1.015l3.222-6.729s-3.67.256-5.856-2.467c-2.032-2.588-2.2-3.773-.641-4.488 1.666-.832 16.952-3.646 27.469-3.29 0 0 3.656-.36 6.825 6.037 0 0 1.536 2.588-1.075 3.211-5.086 1.182-18.458 1.838-18.458 1.838l-1.687 5.332s6.684-.577 11.545-.065c0 0 1.577-.185 1.763 1.806.062 1.855-.157 3.843-.157 3.843s-.103 1.206-1.795 1.512c-1.831.309-14.4.797-14.4.797l-2.038 6.949s-.757 1.606.939 1.15c1.577-.427 14.749-2.92 16.464-2.565 1.837.462 3.872 2.935 3.285 5.19-.7 2.795-13.849 11.252-21.855 10.664m-13.166-10.59c-1.347 3.197-4.911 6.614-9.332 4.49-4.368-2.125-11.323-16.488-11.323-16.488s-2.64-5.358-3.149-5.22c0 0-.57-1.044-.921 4.808-.363 5.829.07 17.192-2.233 18.98-2.182 1.794-4.826 1.082-6.199-1.015-1.243-2.067-1.763-6.97-1.08-15.586.797-8.63 2.784-17.815 5.324-20.673 2.534-2.841 4.572-.78 5.363-.03 0 0 3.39 3.1 8.984 12.207l.99 1.686s5.082 8.604 5.614 8.587c0 0 .413.394.785.108.532-.153.316-2.91.316-2.91s-1.054-9.38-5.688-25.253c0 0-.702-1.977-.23-3.832.473-1.876 2.333-.997 2.333-.997s7.189 3.646 10.676 15.454c3.468 11.807 1.137 22.461-.23 25.684m-35.34-30.387c-.61 1.209-.944 2.953-3.972 3.412 0 0-29.063 2.011-30.437 4.058 0 0-1.021 1.223.565 1.567 1.58.339 8.15 1.22 11.32 1.388 3.399.039 14.81.127 18.9 5.308 0 0 2.423 2.441 2.325 8.005-.115 5.69-1.107 7.696-3.281 9.752-2.31 1.917-21.996 10.807-34.696-2.862 0 0-5.841-6.59 2.018-11.571 0 0 5.694-3.465 20.106.614 0 0 4.359 1.603 4.167 3.214-.245 1.715-3.583 3.532-8.453 3.412-4.725-.144-8.2-2.43-7.53-2.05.65.25-5.065-2.767-6.843-.73-1.763 1.898-1.353 3.077.369 4.227 4.418 2.529 21.45 1.632 26.538-4.062 0 0 2.015-2.3-1.054-4.202-3.068-1.782-11.872-2.853-15.295-3.011-3.293-.186-15.479.04-17.26-3.223 0 0-1.757-2.197.163-8.473 2.05-6.54 16.261-9.063 22.425-9.643 0 0 16.896-.597 20.014 2.882 0 0 .417.797-.088 1.988m-57.126-12.933c-1.5 2.685-2.407 3.502-3.562 3.682-1.71.173-3.216-2.568-3.512-3.473-.292-.66-1.101-1.83-.12-4.506-3.38-3.079-3.622-7.181-3.063-9.972.838-3.2 6.556-15.398 23.957-16.818 0 0 8.49-.638 9.95 3.955h.248s8.263.024 8.086 7.443c-.062 7.414-9.132 16.69-18.47 19.854-5.969 2.008-10.07 1.332-13.514-.165m9.134 51.346c-2.064 1.517-6.403.847-7.628-.844-1.229-1.547-1.657-7.623-1.394-17.163.248-9.657.446-21.597 2.501-23.488 2.186-1.92 3.541-.247 4.371 1.062.933 1.288 2.03 2.717 2.254 5.75.21 3.028.906 18.908.906 18.908s.91 14.269-1.01 15.775m-13.175-25.43c-.661 8.611-3.94 23.127-27.217 30.279-15.355 4.664-29.847 2.426-37.78.394-.165 3.173-.516 4.517-1.021 5.064-.653.67-5.676 3.605-8.432-.547-1.237-1.961-1.855-5.537-2.212-8.684-17.794-8.246-25.99-20.168-26.287-20.697-.396-.38-4.44-4.652-.396-9.91 3.813-4.738 16.264-9.458 27.495-11.381.387-9.667 1.515-16.983 2.856-20.324 1.61-3.885 3.66-.373 5.44 2.232 1.492 1.947 2.372 10.384 2.443 17.142 7.32-.341 11.683.194 19.86 1.688 10.66 1.955 17.78 7.443 17.16 13.68-.467 6.108-6.046 8.643-8.158 8.82-2.235.194-5.679-1.409-5.679-1.409-2.38-1.135-.186-2.126 2.67-3.4 3.095-1.538 2.404-3.099 2.404-3.099-1.155-3.403-14.994-5.805-28.762-5.814-.057 7.67.313 20.38.505 27.782 9.636 1.855 16.836 1.508 16.836 1.508s35.136-.982 36.202-23.638c1.087-22.685-35.062-44.432-61.757-51.346-26.689-7.06-41.774-2.123-43.074-1.444-1.415.715-.094.941-.094.941s1.435.212 3.96 1.08c2.661.853.585 2.226.585 2.226-4.545 1.456-9.678.535-10.653-1.55-.995-2.085.653-3.976 2.56-6.693 1.897-2.835 3.99-2.756 3.99-2.756 32.998-11.524 73.199 9.31 73.199 9.31 37.649 19.21 44.046 41.79 43.357 50.547M416.1 52.033H67.445c-7.407 0-13.411 5.979-13.411 13.351v186.942c0 7.372 6.004 13.351 13.41 13.351H416.1c7.404 0 13.408-5.979 13.408-13.351V65.384c0-7.372-6.004-13.351-13.408-13.351"/><path d="M105.156 162.872c6.874 7.36 15.359 11.982 23.404 14.834.946-12.698.804-17.164.882-23.564-12.578.861-19.837 2.852-23.143 4.347-3.674 1.775-1.143 4.383-1.143 4.383m347.916-34.649l9.263-2.528c2.542 4.693 7.902 7.219 15.166 7.219 8.084 0 12.443-2.526 12.443-7.22 0-11.818-34.6-1.082-34.6-22.732 0-8.843 9.445-14.798 21.429-14.798 9.446 0 18.982 4.69 22.07 11.819l-9.081 2.434c-2.18-3.786-7.266-5.952-12.806-5.952-7.263 0-11.622 2.435-11.622 6.678 0 11.728 34.869.901 34.869 22.283 0 9.925-8.807 16.149-22.702 16.149-11.714 0-21.248-5.232-24.429-13.352m62.636-8.086V96.79h-7.65v-7.902h7.65v-9.54l10.414-2.18v11.72H541.7v7.902h-15.578v22.166c0 10.719 2.858 14.443 10.878 14.443 1.01 0 2.213-.18 4.24-.454l1.38 7.905c-2.026.454-4.977.725-7.186.725-13.55 0-19.726-5.54-19.726-21.438M553.617 88.8h10.118v8.594c1.987-5.461 7.407-10.475 18.16-8.954l-1.086 9.668c-11.562-2.145-17.074 4.03-17.074 16.561v25.335h-10.118V88.8zm75.147 20.763c-.73-8.183-6.39-13.397-15.601-13.397-8.763 0-14.874 4.497-16.06 13.397h31.661zm-42.155 5.305c0-15.823 10.766-26.704 26.37-26.704 16.605 0 26.643 12.05 25.364 29.314h-41.516c.367 9.98 6.662 15.646 16.791 15.646 7.298 0 12.042-2.43 14.599-7.375l9.398 1.437c-4.196 9.533-12.411 14.389-24.18 14.389-16.24 0-26.826-10.612-26.826-26.707zm101.748-.088c0-11.202-6.556-18.103-16.082-18.103-9.436 0-15.905 6.81-15.905 18.102 0 11.382 6.469 18.195 16.082 18.195 9.436 0 15.905-6.903 15.905-18.195m-42.05 0c0-17.654 10.782-26.615 23.54-26.615 8.087 0 15.276 3.941 18.242 11.022V89.149h10.062v51.173H688.09v-9.679c-2.88 6.9-10.155 10.932-18.152 10.932-12.757 0-23.63-9.051-23.63-26.796m69.124-25.634h10.27v9.603c1.831-6.581 7.79-10.492 15.948-10.492 8.8 0 13.112 3.201 15.954 12.092 2.474-7.737 9.44-12.184 19.249-12.184 13.2 0 18.701 7.648 18.701 25.966v25.874h-10.266V114.93c0-12.98-3.485-18.14-12.193-18.14-8.985 0-12.743 5.336-12.743 17.964v25.251h-10.267v-24.986c0-13.337-3.119-18.139-11.643-18.139-8.893 0-12.74 5.78-12.74 18.852v24.273h-10.27v-50.86zm91.268 52.43h10.487V89.401H806.7v52.174zm-1.72-65.218c0-3.467 3.42-5.473 7.01-5.473 3.401 0 5.559 2.006 5.559 5.473 0 3.376-2.158 5.473-5.56 5.473-3.588 0-7.009-2.097-7.009-5.473zm28.279 12.697h9.961v9.262c2.31-6.324 8.09-10.152 16.626-10.152 14.051 0 20.543 8.104 20.543 24.227v27.613h-9.961v-26.813c0-11.134-4.266-16.389-13.693-16.389-9.604 0-13.515 6.324-13.515 17.55v25.652h-9.961v-50.95zm101.658 24.556c0-11.019-6.38-17.74-15.993-17.74-9.526 0-15.904 6.721-15.904 17.74 0 11.198 6.378 17.826 15.992 17.826 9.526 0 15.905-6.718 15.905-17.826m-40.704 30.908l9.526-2.33c2.518 5.288 8.087 8.69 15.095 8.69 10.153 0 15.902-5.015 15.902-17.829v-4.478c-2.873 7.616-10.153 10.571-18.149 10.571-12.848 0-23.63-8.51-23.63-25.532 0-16.935 10.782-25.446 23.54-25.446 8.086 0 15.366 2.958 18.239 10.661v-9.763h10.065v42.374c0 19.175-9.074 27.419-26.057 27.419-12.041 0-21.025-5.198-24.53-14.337m-441.142 76.389l9.263-2.528c2.542 4.693 7.902 7.218 15.166 7.218 8.084 0 12.443-2.525 12.443-7.218 0-11.82-34.6-1.083-34.6-22.734 0-8.843 9.445-14.797 21.429-14.797 9.446 0 18.982 4.69 22.07 11.818l-9.081 2.435c-2.18-3.786-7.266-5.952-12.806-5.952-7.263 0-11.622 2.435-11.622 6.678 0 11.728 34.869.901 34.869 22.282 0 9.926-8.807 16.15-22.702 16.15-11.714 0-21.248-5.232-24.429-13.352m100.284-20.231c-.731-8.183-6.39-13.397-15.604-13.397-8.759 0-14.872 4.497-16.059 13.397h31.663zm-42.156 5.305c0-15.824 10.768-26.704 26.372-26.704 16.603 0 26.64 12.05 25.362 29.314h-41.513c.367 9.98 6.658 15.646 16.787 15.646 7.3 0 12.044-2.43 14.597-7.376l9.401 1.438c-4.199 9.533-12.41 14.389-24.179 14.389-16.24 0-26.827-10.612-26.827-26.707zm62.84-24.516h9.904v8.598c1.879-5.275 6.992-10.11 16.804-9.074l-.9 9.649c-10.767-1.705-15.904 4.472-15.904 16.706v25.344h-9.903v-51.223zm31.421-.617h10.926l16.477 40.713 16.476-40.713h11.107l-22.57 51.84h-10.029zm66.929 51.84h10.488v-52.175h-10.487v52.175zm-.946-65.218c0-3.467 2.648-5.473 6.236-5.473 3.402 0 6.332 2.006 6.332 5.473 0 3.375-2.93 5.473-6.332 5.473-3.588 0-6.236-2.098-6.236-5.473zm21.994 38.512c0-15.556 10.804-26.705 25.914-26.705 13.186 0 21.062 5.935 24.359 17.624l-8.79 1.709c-2.567-7.283-7.42-10.791-15.111-10.791-9.524 0-16.114 7.373-16.114 18.163 0 10.7 6.59 18.076 16.114 18.076 7.142 0 12.636-3.957 14.926-10.703l8.79 1.712c-2.839 11.059-11.63 17.62-24.174 17.62-15.11 0-25.914-11.149-25.914-26.705m100.281-5.306c-.731-8.183-6.389-13.397-15.6-13.397-8.763 0-14.873 4.497-16.06 13.397h31.66zm-42.153 5.305c0-15.824 10.765-26.704 26.369-26.704 16.604 0 26.641 12.05 25.366 29.314h-41.517c.367 9.98 6.66 15.646 16.79 15.646 7.297 0 12.04-2.43 14.598-7.376l9.398 1.438c-4.196 9.533-12.41 14.389-24.18 14.389-16.24 0-26.824-10.612-26.824-26.707zm61.27 14.926l9.265-2.528c2.541 4.693 7.899 7.218 15.161 7.218 8.085 0 12.443-2.525 12.443-7.218 0-11.82-34.599-1.083-34.599-22.734 0-8.843 9.445-14.797 21.432-14.797 9.442 0 18.978 4.69 22.064 11.818l-9.08 2.435c-2.179-3.786-7.265-5.952-12.805-5.952-7.262 0-11.621 2.435-11.621 6.678 0 11.728 34.87.901 34.87 22.282 0 9.926-8.809 16.15-22.704 16.15-11.712 0-21.246-5.232-24.426-13.352"/></g></g></svg>