<svg xmlns="http://www.w3.org/2000/svg" viewBox="0 0 252.542 279.747" height="1057.312" width="954.488"><g transform="translate(-236.769 23.923)"><path style="line-height:normal;font-variant-ligatures:normal;font-variant-position:normal;font-variant-caps:normal;font-variant-numeric:normal;font-variant-alternates:normal;font-feature-settings:normal;text-indent:0;text-align:start;text-decoration-line:none;text-decoration-style:solid;text-decoration-color:#000;text-transform:none;text-orientation:mixed;white-space:normal;shape-padding:0;isolation:auto;mix-blend-mode:normal;solid-color:#000;solid-opacity:1" d="M365.054-10.496l-9.72 5.55.137 72.156 9.745 7.525zm4.502 1.724l.16 84.683h9.731l-.15-79.202zM350.84-2.381l-9.72 5.55.1 53.037 9.746 7.525zM383.8-.758l.146 76.669h9.73l-.135-71.188zm-47.17 6.492l-9.72 5.55.063 33.918 9.745 7.525zm61.554 1.601l.13 68.576h9.73l-.12-63.095zm-75.768 6.515l-9.72 5.549.027 14.799 9.745 7.525zm90.011 1.5l.115 60.561h9.731l-.104-55.08zm-103.958 6.472l-6.662 3.945 6.679 5.158zm118.203 1.624l.1 52.465h9.73l-.09-46.778zm-128.1 4.37l-9.016 5.294L452.78 161.303h15.755zm142.344 3.945l.084 44.15h9.73l-.073-38.462zm-155.528 3.795l-9.015 5.293 153.372 120.454h15.754zm169.772 4.521l.068 35.834h9.73l-.056-30.146zm-182.954 3.218l-9.016 5.293 143.518 112.715h15.755zm197.198 5.098l.053 27.518h9.73l-.04-21.83zm-210.38 2.64l-6.535 3.837v3.404L383.67 161.303h15.754zm-6.535 12.96v12.373l108.146 84.937h15.755zm119.59 16.453l12.475 9.73h95.388v-9.73zm-119.59 1.64V94.46l85.11 66.844h15.754zM390.32 94.675l12.476 9.73h77.146v-9.73zm-137.626 5.054v4.676h5.996zm0 9.174v9.731h24.238l-12.475-9.73zm155.868 0l12.475 9.731h58.905v-9.73zm-155.868 14.229v9.73h42.48l-12.476-9.73zm174.11 0l12.475 9.73h40.663v-9.73zm-174.11 14.229v9.73h60.72l-12.474-9.73zm192.352 0l12.474 9.73h22.422v-9.73zm-192.352 14.228v9.73h78.962l-12.475-9.73zm210.593 0l12.475 9.73h4.18v-9.73zm4.573 9.166l.72.565h.004zm-215.371 5.06l.04 21.83 9.743 5.687-.052-27.517zm14.228 0l.058 30.146 9.741 5.688-.068-35.834zm14.229 0l.073 38.462 9.742 5.687-.085-44.15zm14.228 0l.09 46.778 9.74 5.687-.099-52.465zm14.229 0l.105 55.08 9.741 5.48-.115-60.56zm14.229 0l.12 63.094 9.74 5.481-.13-68.575zm14.368 0l.134 71.187 9.742 5.481-.146-76.668zm14.228 0l.15 79.201 9.742 5.482-.161-84.683zm19.642.003l61.235 48.092 9.015-5.293-54.495-42.8zm23.038 0l51.38 40.352 9.015-5.293-44.641-35.06zm23.036 0l41.527 32.614 9.015-5.293-34.787-27.321zm23.036 0l31.673 24.875 6.535-3.836v-3.405l-22.454-17.634zm23.036 0l15.172 11.915v-11.915zm-97.557 1.174l.162 85.23 9.72-5.55-.137-72.155zm14.25 11.003l.125 66.112 9.72-5.55-.1-53.036zM394.958 189l.088 46.992 9.72-5.55-.064-33.917zm14.249 11.003l.053 27.874 9.72-5.55-.028-14.799zm13.983 10.798l.017 9.104 6.662-3.946z" color="#000" font-weight="400" font-family="sans-serif" overflow="visible" fill="#58a4b0"/><path d="M342.402 32.125c-1.177 0-2.367.175-3.536.598-2.67.967-5.076 3.249-6.724 7.162a1.324 1.324 0 102.44 1.028c1.441-3.424 3.259-5.005 5.186-5.703 1.927-.698 4.108-.493 6.228.176 2.269.716 4.36 1.938 5.834 2.927a19.22 11.878 0 00-5.167 4.56 22.63 22.63 0 00-3.47-.636 16.523 16.523 0 00-1.468-.083c-2.142-.03-4.356.366-6.318 1.583-2.413 1.498-4.296 4.227-5.1 8.396a1.324 1.324 0 102.597.502c.704-3.648 2.157-5.568 3.899-6.648 1.74-1.08 3.917-1.332 6.129-1.115a19.15 19.15 0 012.65.466 19.22 11.878 0 00-.263 1.866 19.22 11.878 0 00.687 3.142c-.507.064-1.02.142-1.532.247-2.534.517-5.132 1.585-6.996 3.729-1.865 2.143-2.858 5.307-2.397 9.528a1.324 1.324 0 102.63-.286c-.403-3.693.419-5.959 1.764-7.505 1.345-1.546 3.352-2.427 5.53-2.872.88-.18 1.776-.282 2.646-.335a19.22 11.878 0 0016.887 6.23 19.22 11.878 0 0016.903-6.23c.865.055 1.755.156 2.631.335 2.178.445 4.184 1.326 5.53 2.872 1.345 1.546 2.167 3.812 1.763 7.505a1.324 1.324 0 102.63.286c.461-4.221-.532-7.385-2.396-9.529-1.865-2.143-4.463-3.211-6.997-3.729a20.575 20.575 0 00-1.55-.249 19.22 11.878 0 00.705-3.139 19.22 11.878 0 00-.25-1.869c.85-.207 1.74-.375 2.637-.463 2.212-.217 4.389.034 6.13 1.115 1.741 1.08 3.194 3 3.898 6.647a1.324 1.324 0 102.598-.501c-.804-4.17-2.687-6.898-5.1-8.396-1.962-1.217-4.177-1.613-6.319-1.583-.494.01-.984.035-1.467.083a22.62 22.62 0 00-3.455.632 19.22 11.878 0 00-5.178-4.56c1.474-.988 3.563-2.208 5.83-2.923 2.12-.67 4.3-.874 6.228-.176 1.927.698 3.744 2.278 5.186 5.703a1.324 1.324 0 102.44-1.028c-1.649-3.913-4.054-6.195-6.725-7.162-1.169-.423-2.36-.6-3.536-.598-.168 0-.336 0-.503.011-1.34.059-2.656.336-3.889.726-3.447 1.088-6.37 3.07-7.839 4.179a19.22 11.878 0 00-9.905-1.716 19.22 11.878 0 00-9.907 1.714c-1.47-1.108-4.392-3.09-7.837-4.177-1.233-.39-2.548-.668-3.888-.726a8.447 8.447 0 00-.504-.011z" fill="#272932"/><ellipse transform="rotate(-170.02)" ry="2.396" rx="2.01" cy="10.644" cx="-365.978" fill="#fff"/><path d="M362.793 54.754a.804.804 0 00.333-1.087.804.804 0 00-1.087-.333.804.804 0 00-.333 1.087.804.804 0 001.087.333zm-.14-.117a.224.224 0 01-.304-.093.224.224 0 01.093-.304.224.224 0 01.303.093.224.224 0 01-.093.303z" fill="#272932"/><ellipse cx="352.067" cy="-115.704" rx="2.01" ry="2.396" transform="scale(1 -1) rotate(9.98)" fill="#fff"/><path d="M366.283 54.754a.804.804 0 01-.333-1.087.804.804 0 011.087-.333.804.804 0 01.333 1.087.804.804 0 01-1.087.333zm.141-.117a.224.224 0 00.303-.093.224.224 0 00-.093-.304.224.224 0 00-.303.093.224.224 0 00.093.303zm-22.634-78.56l-12.515 3.296-76.447 45.87s-24.853-3.122-16.249 15.068c11.588 9.227 19.777-8.363 19.777-8.363L335.39-13.51z" fill="#272932"/><path style="line-height:normal;font-variant-ligatures:normal;font-variant-position:normal;font-variant-caps:normal;font-variant-numeric:normal;font-variant-alternates:normal;font-feature-settings:normal;text-indent:0;text-align:start;text-decoration-line:none;text-decoration-style:solid;text-decoration-color:#000;text-transform:none;text-orientation:mixed;white-space:normal;shape-padding:0;isolation:auto;mix-blend-mode:normal;solid-color:#000;solid-opacity:1" d="M363.032-14.1l-1.462.84-56.875 32.628-57.79 34.386-.324 67.477.484 43.918.26 23.556 58.003 34.022 58.545 33.097 58.339-33.465 57.79-34.386.11-22.843.212-44.635-.743-67.473L421.577 19zm.023 6.816l55.567 31.416 55.073 32.305.706 64.076-.212 44.589-.094 19.493-54.871 32.65-55.372 31.763-55.567-31.414-55.075-32.304-.223-20.208-.484-43.87.307-64.08 54.873-32.652z" color="#000" font-weight="400" font-family="sans-serif" overflow="visible" fill="#272932"/><path d="M261.233 13.494c-4.659-.707-9.153.916-12.293 3.992l2.776 3.754a9.794 9.794 0 018.823-3.172 9.8 9.8 0 018.248 11.199 9.795 9.795 0 01-5.616 7.47l2.774 3.755c3.846-2.091 6.712-5.89 7.416-10.53 1.195-7.87-4.26-15.274-12.128-16.468zM279.02 2.375c-4.659-.707-9.153.917-12.293 3.992l2.775 3.755a9.794 9.794 0 018.824-3.172 9.8 9.8 0 018.247 11.198 9.795 9.795 0 01-5.616 7.47l2.775 3.755c3.846-2.091 6.712-5.89 7.416-10.53 1.194-7.87-4.26-15.274-12.128-16.468zM296.21-8.16c-4.658-.707-9.152.917-12.292 3.992l2.776 3.754a9.794 9.794 0 018.823-3.171 9.801 9.801 0 018.248 11.198 9.795 9.795 0 01-5.616 7.47l2.774 3.755c3.846-2.091 6.712-5.89 7.416-10.53 1.194-7.87-4.26-15.274-12.128-16.468zm17.701-10.007c-4.659-.707-9.152.917-12.292 3.992l2.775 3.755a9.794 9.794 0 018.823-3.172 9.801 9.801 0 018.248 11.198 9.796 9.796 0 01-5.616 7.47l2.774 3.755c3.846-2.091 6.712-5.89 7.416-10.53 1.195-7.87-4.259-15.274-12.128-16.468z" style="line-height:normal;font-variant-ligatures:normal;font-variant-position:normal;font-variant-caps:normal;font-variant-numeric:normal;font-variant-alternates:normal;font-feature-settings:normal;text-indent:0;text-align:start;text-decoration-line:none;text-decoration-style:solid;text-decoration-color:#000;text-transform:none;text-orientation:mixed;white-space:normal;shape-padding:0;isolation:auto;mix-blend-mode:normal;solid-color:#000;solid-opacity:1" color="#000" font-weight="400" font-family="sans-serif" overflow="visible" fill="#58a4b0"/><path d="M382.29-23.923l12.514 3.296 76.447 45.87s24.853-3.122 16.249 15.068c-11.588 9.227-19.777-8.363-19.777-8.363L390.689-13.51z" fill="#272932"/><path style="line-height:normal;font-variant-ligatures:normal;font-variant-position:normal;font-variant-caps:normal;font-variant-numeric:normal;font-variant-alternates:normal;font-feature-settings:normal;text-indent:0;text-align:start;text-decoration-line:none;text-decoration-style:solid;text-decoration-color:#000;text-transform:none;text-orientation:mixed;white-space:normal;shape-padding:0;isolation:auto;mix-blend-mode:normal;solid-color:#000;solid-opacity:1" d="M464.846 13.494c4.659-.707 9.153.916 12.293 3.992l-2.776 3.754a9.794 9.794 0 00-8.823-3.172 9.8 9.8 0 00-8.248 11.199 9.795 9.795 0 005.616 7.47l-2.774 3.755c-3.846-2.091-6.712-5.89-7.417-10.53-1.194-7.87 4.26-15.274 12.129-16.468zM447.06 2.375c4.658-.707 9.152.917 12.292 3.992l-2.776 3.755a9.794 9.794 0 00-8.823-3.172 9.8 9.8 0 00-8.248 11.198 9.795 9.795 0 005.617 7.47l-2.775 3.755c-3.846-2.091-6.712-5.89-7.416-10.53-1.194-7.87 4.26-15.274 12.128-16.468zM429.868-8.16c4.659-.707 9.153.917 12.293 3.992l-2.776 3.754a9.794 9.794 0 00-8.823-3.171 9.801 9.801 0 00-8.248 11.198 9.795 9.795 0 005.616 7.47l-2.774 3.755c-3.846-2.091-6.712-5.89-7.416-10.53C416.546.437 422-6.967 429.868-8.16zm-17.7-10.007c4.658-.707 9.152.917 12.292 3.992l-2.775 3.755a9.794 9.794 0 00-8.823-3.172 9.801 9.801 0 00-8.248 11.198 9.796 9.796 0 005.616 7.47l-2.775 3.755c-3.845-2.091-6.711-5.89-7.416-10.53-1.194-7.87 4.26-15.274 12.129-16.468z" color="#000" font-weight="400" font-family="sans-serif" overflow="visible" fill="#58a4b0"/><path d="M305.32 185.909l73.817-11.801 53.31.798 1.402 2.91-77.445 12.245-43.87-1.994zm31.145 18.047l44.932-14.294 21.537 2.127.569 4.072.01.01-32.009 9.928-25.663.132-7.633-1.448z" fill="gray"/><path style="line-height:normal;font-variant-ligatures:normal;font-variant-position:normal;font-variant-caps:normal;font-variant-numeric:normal;font-variant-alternates:normal;font-feature-settings:normal;text-indent:0;text-align:start;text-decoration-line:none;text-decoration-style:solid;text-decoration-color:#000;text-transform:none;text-orientation:mixed;white-space:normal;shape-padding:0;isolation:auto;mix-blend-mode:normal;solid-color:#000;solid-opacity:1" d="M312.275 52.928c-13.18 20.722-20.094 112.888-20.094 112.888l.068 6.073h.035l.034 5.932h141.536l.014-5.932h.014l.03-6.073C425.27 70.586 412.998 53.68 412.998 53.68c-7.028 4.052-18.515 31.432-18.515 31.432-35.433-5.952-63.952.11-63.952.11-8.966-22.374-18.256-32.294-18.256-32.294zm-6.971 132.978l6.496 3.792 10.585 6.172h81.124l10.527-6.172 6.404-3.792zm31.153 18.049l6.175 3.474 15.85 8.859h9.398l15.485-8.86 6.084-3.473zm25.463-216.45v5.201h4.505v-3.48c-.61-.192-4.505-1.721-4.505-1.721zm0 8.873v5.203h4.505v-5.203zm0 8.873V9.69h4.505V5.252zm0 8.875v4.436h4.505v-4.436zm0 8.873v4.436h4.505V23zm0 8.873v2.85l3.271 1.587h1.234v-4.437z" color="#000" font-weight="400" font-family="sans-serif" overflow="visible" fill="#272932"/><path d="M308.347 91.092l6.57-23.07 6.569 18.64s-7.944 3.208-13.139 4.43zm109.057 0l-6.57-23.07-6.569 18.64s7.945 3.208 13.139 4.43z" fill="#fff"/><ellipse transform="rotate(37.942)" ry="8.127" rx="6.816" cy="-123.936" cx="333.581" fill="#fff"/><path d="M340.64 101.126a2.726 2.726 0 00-2.726 2.727 2.726 2.726 0 002.726 2.726 2.726 2.726 0 002.726-2.726 2.726 2.726 0 00-2.726-2.727zm.236.577a.76.76 0 01.76.76.76.76 0 01-.76.76.76.76 0 01-.76-.76.76.76 0 01.76-.76z" fill="#272932"/><path d="M362.234 113.375c-1.423-.016-2.482.102-3.208 1.326-.726 1.223-.322 2.21.375 3.45.504.897.977 1.587 1.737 1.91-.022 2.571-.489 4-1.009 4.65-.532.665-1.09.724-1.864.544-1.549-.36-3.407-2.071-3.407-2.071a.696.696 0 10-.97.995s1.877 1.925 4.06 2.432c1.093.254 2.401.055 3.269-1.03.483-.604.832-1.432 1.05-2.53.219 1.098.568 1.926 1.052 2.53.867 1.085 2.176 1.284 3.268 1.03 2.184-.507 4.06-2.432 4.06-2.432a.696.696 0 10-.969-.995s-1.858 1.711-3.407 2.071c-.774.18-1.332.121-1.865-.544-.525-.657-.998-2.106-1.01-4.73.641-.341 1.086-.97 1.557-1.765.726-1.224 1.152-2.2.455-3.44-.696-1.24-1.752-1.385-3.174-1.401z" fill="#fff"/><ellipse cx="-237.782" cy="321.528" rx="6.816" ry="8.127" transform="scale(-1 1) rotate(37.942)" fill="#fff"/><path d="M383.855 101.126a2.726 2.726 0 012.727 2.727 2.726 2.726 0 01-2.727 2.726 2.726 2.726 0 01-2.726-2.726 2.726 2.726 0 012.726-2.727zm-.235.577a.76.76 0 00-.761.76.76.76 0 00.76.76.76.76 0 00.76-.76.76.76 0 00-.76-.76z" fill="#272932"/></g></svg>